<svg width="111" height="108" viewBox="0 0 111 108" fill="none" xmlns="http://www.w3.org/2000/svg">
<circle cx="53.9049" cy="53.9049" r="53.9049" fill="#B4B4B4"/>
<circle cx="53.9049" cy="53.9049" r="53.9049" fill="url(#paint0_linear)"/>
<path d="M110.299 24.5777L105.478 19.7565C105.025 19.3081 104.412 19.0526 103.771 19.0526H98.9498C97.9133 19.0526 96.9924 19.7179 96.6598 20.7015C96.6405 20.7593 94.712 26.2845 86.8968 26.2845C79.2117 26.2845 77.2061 20.9088 77.1289 20.7015C76.8011 19.7179 75.8802 19.0526 74.8437 19.0526H70.0225C69.3812 19.0526 68.7689 19.3081 68.3157 19.7565L63.4945 24.5777C62.7424 25.3347 62.5736 26.487 63.0799 27.4271C63.1088 27.4801 65.8762 32.6919 65.2205 38.0483C64.3382 45.2705 70.4274 51.7791 70.683 52.0539C71.1362 52.5312 71.7726 52.8012 72.4331 52.8012H101.36C102.021 52.8012 102.657 52.5312 103.106 52.0491C103.371 51.7743 109.45 45.2656 108.573 38.0434C107.927 32.7353 110.685 27.4753 110.714 27.4174C111.215 26.487 111.046 25.3299 110.299 24.5777Z" fill="#EBAC98"/>
<path d="M57.2076 91.2504C57.8103 91.4529 72.1968 96.1922 86.8775 96.1922H86.8968C86.9923 96.1922 87.0879 96.1919 87.1835 96.1915C98.2708 87.4135 105.825 74.3677 107.364 59.5352L103.617 49.5419C103.265 48.6018 102.363 47.9799 101.36 47.9799H72.4331C71.4303 47.9799 70.5287 48.6018 70.1767 49.5419L55.713 88.1118C55.4864 88.7241 55.5105 89.4087 55.795 89.9969C56.0746 90.5899 56.5857 91.0431 57.2076 91.2504Z" fill="#EBAC98"/>
<path d="M79.6649 64.8544C79.5106 64.8544 79.3515 64.8399 79.1876 64.8062C77.8859 64.5506 77.0422 63.2778 77.3025 61.9713L79.7131 49.9182C79.9735 48.6116 81.2173 47.7486 82.548 48.0283C83.8546 48.2886 84.6983 49.5566 84.4379 50.8632L82.0273 62.9162C81.8007 64.0637 80.7931 64.8544 79.6649 64.8544Z" fill="#ECEFF1"/>
<path d="M94.1238 64.8542C93.0004 64.8542 91.9976 64.0635 91.7662 62.9161L89.3556 50.863C89.0952 49.5564 89.939 48.2884 91.2455 48.0281C92.5376 47.7533 93.8201 48.6115 94.0804 49.918L96.491 61.9711C96.7562 63.2776 95.9076 64.5504 94.5963 64.806C94.442 64.8397 94.2829 64.8542 94.1238 64.8542Z" fill="#ECEFF1"/>
<path d="M103.771 52.8011H70.0224C68.687 52.8011 67.6118 51.7211 67.6118 50.3905C67.6118 49.0598 68.687 47.9799 70.0224 47.9799H103.771C105.102 47.9799 106.182 49.0598 106.182 50.3905C106.182 51.7211 105.102 52.8011 103.771 52.8011Z" fill="#B56E6E"/>
<path fill-rule="evenodd" clip-rule="evenodd" d="M22.0005 25.4036H56.2235L74.8506 31.4855C76.8648 32.1455 78.224 34.018 78.224 36.1349V91.2535C78.224 93.9522 76.0337 96.1425 73.335 96.1425H20.4093C7.97411 86.2678 0 71.0176 0 53.905V36.1349C0 34.018 1.35914 32.1406 3.37341 31.4855L22.0005 25.4036Z" fill="#455A64"/>
<path d="M22.0005 25.4531L39.112 76.6361L56.2235 25.4531H22.0005Z" fill="#CFD8DC"/>
<path d="M34.223 30.1907H44.001L39.112 42.4132L34.223 30.1907Z" fill="#B56E6E"/>
<path d="M24.4449 17.9681H53.7789L39.1119 30.1906L24.4449 17.9681Z" fill="#B0BEC5"/>
<path d="M29.334 61.9693L36.6675 35.0798H41.5565L48.89 61.9693L39.112 76.6363L29.334 61.9693Z" fill="#B56E6E"/>
<path d="M39.112 91.3032C40.462 91.3032 41.5565 90.2087 41.5565 88.8587C41.5565 87.5086 40.462 86.4142 39.112 86.4142C37.7619 86.4142 36.6675 87.5086 36.6675 88.8587C36.6675 90.2087 37.7619 91.3032 39.112 91.3032Z" fill="#37474F"/>
<path d="M41.4197 75.8288L24.3082 26.9388C24.0148 26.1028 23.2864 25.4868 22.4113 25.3401C21.5508 25.1934 20.6512 25.5308 20.089 26.2201L10.311 38.4426C9.77808 39.1075 9.6363 40.0022 9.92475 40.804C10.2181 41.6058 10.9074 42.1974 11.7435 42.3636L19.4876 43.9134L15.3809 48.0153C14.496 48.9051 14.4226 50.3229 15.2195 51.2909L37.22 78.1804C37.6992 78.772 38.3983 79.08 39.1121 79.08C39.5179 79.08 39.9285 78.9773 40.305 78.772C41.3415 78.1853 41.8108 76.9435 41.4197 75.8288Z" fill="#546E7A"/>
<path d="M36.8045 75.8299L53.916 26.9399C54.2142 26.099 54.9378 25.4879 55.8129 25.3363C56.6734 25.1896 57.5729 25.527 58.1352 26.2163L67.9132 38.4388C68.4461 39.1086 68.5928 40.0033 68.2994 40.8051C68.0061 41.6069 67.3167 42.1985 66.4807 42.3647L58.7365 43.9145L62.8384 48.0164C63.7282 48.9062 63.7966 50.3191 63.0046 51.292L41.0041 78.1815C40.525 78.7731 39.8259 79.0811 39.1121 79.0811C38.7063 79.0811 38.2956 78.9784 37.9192 78.7731C36.8827 78.1864 36.4134 76.9446 36.8045 75.8299Z" fill="#546E7A"/>
<path d="M53.779 17.9681L56.2235 25.4532L48.89 39.9686L39.112 30.1906L53.779 17.9681Z" fill="#ECEFF1"/>
<path d="M24.445 17.9681L22.0005 25.4532L29.334 39.9686L39.112 30.1906L24.445 17.9681Z" fill="#ECEFF1"/>
<defs>
<linearGradient id="paint0_linear" x1="53.9049" y1="0" x2="53.9049" y2="107.81" gradientUnits="userSpaceOnUse">
<stop stop-color="#24F3E7" stop-opacity="0.61"/>
<stop offset="1" stop-color="white" stop-opacity="0"/>
</linearGradient>
</defs>
</svg>
