<svg width="156" height="156" viewBox="0 0 156 156" fill="none" xmlns="http://www.w3.org/2000/svg">
<path d="M130 13H10.4C6.09217 13 2.59999 16.4922 2.59999 20.8V145.6C2.59999 149.908 6.09217 153.4 10.4 153.4H130C134.308 153.4 137.8 149.908 137.8 145.6V20.8C137.8 16.4922 134.308 13 130 13Z" fill="#F2F5F0"/>
<path d="M130 13H122.2C126.508 13 130 16.4922 130 20.8V145.6C130 149.908 126.508 153.4 122.2 153.4H130C134.308 153.4 137.8 149.908 137.8 145.6V20.8C137.8 16.4922 134.308 13 130 13Z" fill="#C0CCB3"/>
<path d="M137.8 145.6L147.919 145.6C149.503 145.605 151.01 144.922 152.051 143.729C153.092 142.535 153.563 140.949 153.343 139.381L137.8 31.2V145.6Z" fill="#A6B794"/>
<path d="M153.343 139.381L137.8 31.2V85.4853L145.543 139.381C145.763 140.949 145.292 142.535 144.251 143.729C143.21 144.922 141.703 145.605 140.119 145.6H147.919C149.503 145.605 151.01 144.922 152.051 143.729C153.092 142.535 153.563 140.949 153.343 139.381Z" fill="#8DA376"/>
<path d="M127.4 28.6V44.2H13V28.6C13.0086 25.7317 15.3317 23.4086 18.2 23.4H122.2C125.068 23.4086 127.391 25.7317 127.4 28.6Z" fill="#A6B794"/>
<path d="M122.2 23.4H114.4C117.268 23.4086 119.591 25.7317 119.6 28.6V44.2H127.4V28.6C127.391 25.7317 125.068 23.4086 122.2 23.4Z" fill="#8DA376"/>
<path d="M127.4 44.2001V122.642C127.399 124.028 126.847 125.356 125.866 126.334L110.734 141.466C109.756 142.447 108.428 142.999 107.042 143H18.2C15.3317 142.991 13.0086 140.668 13 137.8V44.2001H127.4Z" fill="#F2F5F0"/>
<path fill-rule="evenodd" clip-rule="evenodd" d="M101.461 98.5359C101.452 107.215 94.432 114.249 85.7695 114.258C83.3541 114.255 81.0664 113.707 79.0228 112.729C77.6648 112.079 76.4146 111.244 75.3061 110.249C72.2604 107.516 70.2851 103.61 70.0874 99.2406C70.2336 97.9313 71.3425 96.9134 72.6886 96.9134C74.0792 96.9134 75.2166 97.9997 75.3011 99.3715H75.3392C75.573 102.328 77.0307 104.939 79.2049 106.697C80.9998 108.148 83.2834 109.017 85.7695 109.017C91.5469 109.017 96.2304 104.325 96.2304 98.5359V94.2783C93.4546 96.7698 89.7888 98.2862 85.7695 98.2903C77.107 98.2816 70.0868 91.2478 70.0781 82.5684L70.0781 77.5734C70.0781 68.8905 77.1034 61.8516 85.7695 61.8516C94.4356 61.8516 101.461 68.8905 101.461 77.5734V98.5359ZM96.2304 77.5734C96.2304 71.7848 91.5469 67.0922 85.7695 67.0922C79.9921 67.0922 75.3086 71.7848 75.3086 77.5734L75.3086 82.5684C75.3086 88.357 79.9921 93.0496 85.7695 93.0496C91.5469 93.0496 96.2304 88.357 96.2304 82.5684L96.2304 77.5734Z" fill="#73895C"/>
<path d="M119.6 44.2001V122.642C119.599 124.028 119.047 125.356 118.066 126.334L102.934 141.466C101.956 142.447 100.628 142.999 99.2419 143H107.042C108.428 142.999 109.756 142.447 110.734 141.466L125.866 126.334C126.847 125.356 127.399 124.028 127.4 122.642V44.2001H119.6Z" fill="#C0CCB3"/>
<path d="M126.932 124.8C126.671 125.371 126.31 125.891 125.866 126.334L110.734 141.466C110.291 141.91 109.771 142.271 109.2 142.532V130C109.209 127.132 111.532 124.809 114.4 124.8H126.932Z" fill="#C0CCB3"/>
<path d="M18.2 153.4C13.8922 153.4 10.4 149.908 10.4 145.6V20.8C10.4 16.4922 13.8922 13 18.2 13H10.4C6.09217 13 2.59999 16.4922 2.59999 20.8V145.6C2.59999 149.908 6.09217 153.4 10.4 153.4H18.2Z" fill="white"/>
<path d="M0 124.8H5.2V145.6H0V124.8Z" fill="white"/>
<path d="M2.65199 137.8C1.21605 137.807 0.0461724 136.649 0.0389927 135.213C0.031813 133.777 1.19005 132.607 2.62599 132.6H2.65199C4.08793 132.6 5.25199 133.764 5.25199 135.2C5.25199 136.636 4.08793 137.8 2.65199 137.8Z" fill="#73895C"/>
<path d="M140.4 31.005V20.8C140.4 15.0563 135.744 10.4 130 10.4H112.593C109.597 4.0508 103.207 0 96.187 0C89.1666 0 82.7765 4.0508 79.781 10.4H63.193C60.1975 4.0508 53.8074 0 46.787 0C39.7666 0 33.3765 4.0508 30.381 10.4H10.4C4.65624 10.4 0 15.0563 0 20.8V124.8C0 126.236 1.16406 127.4 2.6 127.4C4.03594 127.4 5.2 126.236 5.2 124.8V20.8C5.2 17.9282 7.52812 15.6 10.4 15.6H28.808C28.6768 16.4606 28.6073 17.3295 28.6 18.2C28.6073 19.0706 28.6768 19.9394 28.808 20.8H18.2C13.8922 20.8 10.4 24.2922 10.4 28.6V137.8C10.4 142.108 13.8922 145.6 18.2 145.6H107.047C109.117 145.606 111.103 144.783 112.562 143.315L127.715 128.162C129.182 126.702 130.005 124.717 130 122.647V28.6C130 24.2922 126.508 20.8 122.2 20.8H83.46C83.1098 19.0844 83.1098 17.3157 83.46 15.6H130C132.872 15.6 135.2 17.9282 135.2 20.8V145.6C135.2 148.472 132.872 150.8 130 150.8H10.4C7.52812 150.8 5.2 148.472 5.2 145.6C5.2 144.164 4.03594 143 2.6 143C1.16406 143 0 144.164 0 145.6C0 151.344 4.65624 156 10.4 156H130C134.728 155.982 138.849 152.778 140.031 148.2H147.922C150.259 148.205 152.484 147.195 154.018 145.432C155.553 143.669 156.247 141.326 155.919 139.012L140.4 31.005ZM46.8 5.20004C50.8912 5.20249 54.7433 7.1285 57.2 10.4H36.4676C38.9022 7.13816 42.7297 5.2119 46.8 5.20004ZM15.6 137.8V46.8H124.8V122.2H114.4C110.092 122.2 106.6 125.692 106.6 130V140.4H18.2C16.7641 140.4 15.6 139.236 15.6 137.8ZM111.8 136.724V130C111.8 128.564 112.964 127.4 114.4 127.4H121.124L111.8 136.724ZM122.2 26C123.636 26 124.8 27.1641 124.8 28.6V41.6H15.6V28.6C15.6 27.1641 16.7641 26 18.2 26H30.381C33.3899 32.3434 39.7792 36.3904 46.8 36.4C48.2359 36.4 49.4 35.236 49.4 33.8C49.4 32.3641 48.2359 31.2 46.8 31.2C42.7297 31.1882 38.9022 29.2619 36.4676 26H79.781C82.7899 32.3434 89.1791 36.3904 96.2 36.4C97.6359 36.4 98.8 35.236 98.8 33.8C98.8 32.3641 97.6359 31.2 96.2 31.2C92.1297 31.1882 88.3022 29.2619 85.8676 26H122.2ZM78.208 20.8H34.06C33.7098 19.0844 33.7098 17.3157 34.06 15.6H78.208C78.0768 16.4606 78.0073 17.3295 78 18.2C78.0073 19.0706 78.0768 19.9394 78.208 20.8ZM96.2 5.20004C100.291 5.20249 104.143 7.1285 106.6 10.4H85.8676C88.3022 7.13816 92.1297 5.2119 96.2 5.20004ZM150.106 142.004C149.56 142.642 148.761 143.007 147.922 143L140.4 143V67.5844L150.769 139.753C150.891 140.564 150.648 141.388 150.106 142.004Z" fill="#73895C"/>
<path d="M49.4 114.4C58.0121 114.391 64.9914 107.412 65 98.8V78C65 69.3844 58.0156 62.4 49.4 62.4C40.7843 62.4 33.8 69.3844 33.8 78V98.8C33.8086 107.412 40.7879 114.391 49.4 114.4ZM39 78C39 72.2563 43.6562 67.6 49.4 67.6C55.1437 67.6 59.8 72.2563 59.8 78V98.8C59.8 104.544 55.1437 109.2 49.4 109.2C43.6562 109.2 39 104.544 39 98.8V78Z" fill="#73895C"/>
<path d="M98.8 122.2H39C37.564 122.2 36.4 123.364 36.4 124.8C36.4 126.236 37.564 127.4 39 127.4H98.8C100.236 127.4 101.4 126.236 101.4 124.8C101.4 123.364 100.236 122.2 98.8 122.2Z" fill="#73895C"/>
</svg>
