<svg width="512" height="512" viewBox="0 0 512 512" fill="none" xmlns="http://www.w3.org/2000/svg">
<path d="M256 0C114.615 0 0 114.615 0 256C0 397.385 114.615 512 256 512C397.385 512 512 397.385 512 256C512 114.615 397.385 0 256 0ZM256 326.567C217.089 326.567 185.433 294.911 185.433 256C185.433 217.089 217.089 185.433 256 185.433C294.911 185.433 326.567 217.089 326.567 256C326.567 294.911 294.911 326.567 256 326.567Z" fill="#FECE85"/>
<path d="M256 0C114.618 0 0 114.618 0 256C0 284.052 4.512 311.053 12.857 336.313C33.358 356.7 61.595 369.32 92.717 369.32C140.826 369.32 182.044 339.177 198.444 296.775C190.254 285.258 185.433 271.175 185.433 256C185.433 217.09 217.091 185.433 256 185.433C294.91 185.433 326.567 217.09 326.567 256C326.567 275.409 318.696 293.014 305.963 305.778V366.229C305.963 394.631 329.07 417.738 357.472 417.738C371.225 417.738 384.164 412.381 393.889 402.646C403.624 392.921 408.981 379.982 408.981 366.229V286.905C408.981 281.229 413.606 276.603 419.283 276.603C422.992 276.603 425.433 278.499 426.566 279.621C427.689 280.754 429.584 283.196 429.584 286.904V314.719C429.584 343.121 452.691 366.228 481.093 366.228C483.174 366.228 485.245 366.104 487.295 365.847C503.13 332.563 512 295.322 512 256C512 114.618 397.382 0 256 0V0Z" fill="#FECE85"/>
<path d="M512 256C512 295.322 503.13 332.563 487.296 365.848C485.246 366.106 483.175 366.229 481.094 366.229C452.692 366.229 429.585 343.122 429.585 314.72V286.905C429.585 283.196 427.689 280.755 426.567 279.622C425.434 278.499 422.992 276.604 419.284 276.604C413.608 276.604 408.982 281.23 408.982 286.906V366.23C408.982 379.983 403.625 392.922 393.89 402.647C384.165 412.382 371.226 417.739 357.473 417.739C329.071 417.739 305.964 394.632 305.964 366.23V305.779C318.697 293.015 326.568 275.409 326.568 256.001C326.568 217.091 294.911 185.434 256.001 185.434C217.091 185.434 185.434 217.091 185.434 256.001C185.434 271.176 190.255 285.258 198.445 296.776C182.045 339.178 140.827 369.321 92.718 369.321C61.596 369.321 33.359 356.701 12.858 336.314C4.512 311.053 0 284.052 0 256C0 114.618 114.618 0 256 0C397.382 0 512 114.618 512 256V256Z" fill="#FEC165"/>
<path d="M512 256V314.72C512 323.25 508.539 330.976 502.945 336.57C501.328 338.187 499.545 339.619 497.609 340.825C492.829 343.874 487.163 345.626 481.095 345.626C464.025 345.626 450.19 331.791 450.19 314.721V286.906C450.19 278.376 446.729 270.65 441.135 265.056C435.541 259.462 427.815 256.001 419.285 256.001C402.215 256.001 388.38 269.836 388.38 286.906V366.23C388.38 374.76 384.919 382.486 379.325 388.08C373.731 393.674 366.005 397.135 357.475 397.135C340.405 397.135 326.57 383.3 326.57 366.23V256C326.57 217.09 294.913 185.433 256.003 185.433C217.093 185.433 185.436 217.09 185.436 256C185.436 307.21 143.93 348.716 92.72 348.716C41.506 348.716 0 307.21 0 256C0 114.618 114.618 0 256 0C397.382 0 512 114.618 512 256V256Z" fill="#FD8087"/>
<path d="M51.509 256C51.509 287.39 57.154 317.461 67.497 345.245C28.546 334.263 0 298.464 0 256C0 114.618 114.618 0 256 0C259.255 0 262.5 0.062 265.735 0.185C266.714 0.216 267.682 0.257 268.65 0.309C269.824 0.36 270.999 0.432 272.173 0.505C273.244 0.567 274.316 0.639 275.377 0.721C277.509 0.886 279.632 1.071 281.754 1.277C152.467 14.196 51.509 123.313 51.509 256V256Z" fill="#FE646F"/>
<path d="M51.509 256C51.509 123.313 152.467 14.196 281.754 1.277C273.286 0.433 264.695 0 256 0C114.618 0 0 114.618 0 256C0 397.382 114.618 512 256 512C264.695 512 273.286 511.567 281.755 510.723C152.467 497.804 51.509 388.687 51.509 256V256Z" fill="#FEC165"/>
<path d="M281.755 1.277C279.633 1.071 277.511 0.886 275.378 0.721C274.317 0.639 273.245 0.567 272.174 0.505C271 0.433 269.825 0.361 268.651 0.309C267.683 0.257 266.714 0.216 265.736 0.185C262.5 0.062 259.255 0 256 0C114.618 0 0 114.618 0 256C0 298.464 28.546 334.263 67.497 345.245C57.154 317.461 51.509 287.39 51.509 256C51.509 123.313 152.467 14.196 281.755 1.277V1.277Z" fill="#FE646F"/>
<path d="M47.56 255.141C43.293 255.141 39.834 251.682 39.834 247.415V216.51C39.834 212.243 43.293 208.784 47.56 208.784C51.827 208.784 55.286 212.243 55.286 216.51V247.415C55.286 251.682 51.827 255.141 47.56 255.141Z" fill="#FEF0AE"/>
<path d="M454.825 215.994C450.558 215.994 447.099 212.535 447.099 208.268V177.363C447.099 173.096 450.558 169.637 454.825 169.637C459.092 169.637 462.551 173.096 462.551 177.363V208.268C462.551 212.535 459.092 215.994 454.825 215.994Z" fill="#FEF0AE"/>
<path d="M116.218 189.979C112.71 189.979 109.536 187.575 108.701 184.013L101.655 153.921C100.683 149.766 103.262 145.609 107.417 144.636C111.575 143.665 115.729 146.243 116.701 150.398L123.747 180.49C124.719 184.645 122.14 188.802 117.985 189.775C117.394 189.912 116.801 189.979 116.218 189.979V189.979Z" fill="#FEF0AE"/>
<path d="M236.007 148.543C232.499 148.543 229.325 146.139 228.49 142.577L221.444 112.485C220.472 108.33 223.051 104.173 227.206 103.2C231.362 102.23 235.517 104.807 236.49 108.962L243.536 139.054C244.508 143.209 241.929 147.366 237.774 148.339C237.183 148.477 236.59 148.543 236.007 148.543Z" fill="#FEF0AE"/>
<path d="M365.924 127.042C362.571 127.042 359.484 124.843 358.505 121.461C357.319 117.362 359.681 113.078 363.78 111.892L393.468 103.302C397.566 102.119 401.851 104.477 403.037 108.577C404.223 112.676 401.861 116.96 397.762 118.146L368.074 126.736C367.358 126.943 366.634 127.042 365.924 127.042V127.042Z" fill="#FEF0AE"/>
<path d="M97.791 301.989C96.531 301.989 95.254 301.68 94.072 301.03C90.334 298.972 88.971 294.273 91.029 290.536L105.933 263.462C107.991 259.724 112.688 258.36 116.427 260.419C120.165 262.477 121.528 267.176 119.47 270.913L104.566 297.987C103.159 300.544 100.517 301.989 97.791 301.989V301.989Z" fill="#FEF0AE"/>
<path d="M373.312 217.053C372.052 217.053 370.775 216.744 369.593 216.094C365.855 214.036 364.492 209.337 366.55 205.6L381.454 178.526C383.513 174.788 388.212 173.425 391.948 175.483C395.686 177.541 397.049 182.24 394.991 185.977L380.087 213.051C378.68 215.608 376.038 217.053 373.312 217.053Z" fill="#FEF0AE"/>
<path d="M155.584 95.5681C153.618 95.5681 151.652 94.8231 150.145 93.3301C147.114 90.3261 147.092 85.4341 150.095 82.4031L171.849 60.4501C174.853 57.4201 179.744 57.3971 182.776 60.4001C185.807 63.4041 185.829 68.2961 182.826 71.3271L161.072 93.2801C159.562 94.8051 157.573 95.5681 155.584 95.5681Z" fill="#FEF0AE"/>
<path d="M317.899 83.016C316.259 83.016 314.607 82.496 313.205 81.422L288.675 62.623C285.288 60.027 284.646 55.177 287.242 51.791C289.839 48.404 294.688 47.763 298.074 50.358L322.604 69.157C325.991 71.753 326.633 76.603 324.037 79.989C322.516 81.973 320.22 83.016 317.899 83.016V83.016Z" fill="#FEF0AE"/>
</svg>
