<svg width="106" height="106" viewBox="0 0 106 106" fill="none" xmlns="http://www.w3.org/2000/svg">
<circle cx="53" cy="53" r="53" fill="#CD1A65"/>
<circle cx="53" cy="53" r="53" fill="url(#paint0_linear)" style="mix-blend-mode:multiply"/>
<circle cx="53" cy="53" r="53" fill="url(#paint1_linear)" style="mix-blend-mode:soft-light"/>
<path fill-rule="evenodd" clip-rule="evenodd" d="M49.8547 19.144C52.4332 19.785 54.0009 22.3833 53.3563 24.9474L51.2419 33.3578H65.3831L68.0812 22.626C68.7258 20.0619 71.3387 18.503 73.9172 19.144C76.4957 19.785 78.0634 22.3833 77.4188 24.9474L75.3044 33.3578H87.1875C89.8454 33.3578 92 35.5004 92 38.1433C92 40.7863 89.8454 42.9289 87.1875 42.9289H72.8981L68.0856 62.0711H77.5625C80.2204 62.0711 82.375 64.2137 82.375 66.8567C82.375 69.4996 80.2204 71.6422 77.5625 71.6422H65.6794L62.9813 82.374C62.3367 84.9381 59.7238 86.497 57.1453 85.856C54.5668 85.215 52.9991 82.6167 53.6437 80.0526L55.7581 71.6422H41.6169L38.9188 82.374C38.2742 84.9381 35.6613 86.497 33.0828 85.856C30.5043 85.215 28.9366 82.6167 29.5812 80.0526L31.6956 71.6422H19.8125C17.1546 71.6422 15 69.4996 15 66.8567C15 64.2137 17.1546 62.0711 19.8125 62.0711H34.1019L38.9144 42.9289H29.4375C26.7796 42.9289 24.625 40.7863 24.625 38.1433C24.625 35.5004 26.7796 33.3578 29.4375 33.3578H41.3206L44.0187 22.626C44.6633 20.0619 47.2762 18.503 49.8547 19.144ZM48.8356 42.9289L44.0231 62.0711H58.1644L62.9769 42.9289H48.8356Z" fill="white"/>
<defs>
<linearGradient id="paint0_linear" x1="64.5" y1="17.5" x2="42.5" y2="86.5" gradientUnits="userSpaceOnUse">
<stop stop-color="#C1B3AC"/>
<stop offset="1" stop-color="white" stop-opacity="0"/>
</linearGradient>
<linearGradient id="paint1_linear" x1="53" y1="106" x2="84" y2="32.5" gradientUnits="userSpaceOnUse">
<stop stop-color="#FAFF00"/>
<stop offset="1" stop-color="white" stop-opacity="0"/>
</linearGradient>
</defs>
</svg>
