<svg width="106" height="106" viewBox="0 0 106 106" fill="none" xmlns="http://www.w3.org/2000/svg">
<path d="M52.9999 106C82.2709 106 106 82.2709 106 52.9999C106 23.7289 82.2709 0 52.9999 0C23.7289 0 0 23.7289 0 52.9999C0 82.2709 23.7289 106 52.9999 106Z" fill="#4BC999"/>
<path d="M58.8719 74.5178V105.678C58.7183 105.695 58.5626 105.712 58.409 105.727C56.6308 105.907 54.8267 106 53.0009 106C52.7651 106 52.5293 105.998 52.2958 105.996C50.7101 105.974 49.1417 105.883 47.5929 105.727C47.4392 105.712 47.2835 105.695 47.1299 105.678V74.5178H58.8719Z" fill="#494B5B"/>
<path d="M58.8719 81.5635V105.677C58.7183 105.695 58.5626 105.712 58.409 105.727C56.6308 105.907 54.8267 106 53.0009 106C52.7651 106 52.5293 105.998 52.2958 105.995V86.2298C52.2958 83.6512 54.3856 81.5637 56.9618 81.5637L58.8719 81.5635Z" fill="#5C5E70"/>
<path d="M82.935 76.0976H23.0654C18.5842 76.0976 14.9514 72.4648 14.9514 67.9836V8.11399C14.9512 3.63278 18.584 0 23.0654 0H82.935C87.4162 0 91.049 3.63278 91.049 8.11399V67.9836C91.049 72.4648 87.4162 76.0976 82.935 76.0976Z" fill="#34ABE0"/>
<path d="M82.2396 4.34595H23.76C21.2982 4.34595 19.2972 6.34691 19.2972 8.80872V67.2883C19.2972 69.7501 21.2982 71.7534 23.76 71.7534H82.2396C84.7014 71.7534 86.7047 69.7501 86.7047 67.2883V8.80872C86.7045 6.34691 84.7014 4.34595 82.2396 4.34595ZM84.5911 67.2883C84.5911 68.5841 83.5354 69.6398 82.2396 69.6398H23.76C22.4642 69.6398 21.4106 68.5841 21.4106 67.2883V8.80872C21.4106 7.51291 22.4642 6.45933 23.76 6.45933H82.2396C83.5354 6.45933 84.5911 7.51291 84.5911 8.80872V67.2883Z" fill="#FCF8F2"/>
<path d="M54.9607 18.3833H43.7313C41.832 18.3833 40.5838 19.5775 40.5838 20.9337V55.4399C40.5838 57.1748 42.6995 58.0446 44.8151 58.0446C46.9308 58.0446 49.0464 57.175 49.0464 55.4399V43.7194H54.4179C61.905 43.7194 67.7652 40.2473 67.7652 31.1336V30.8609C67.7652 21.7472 62.1234 18.3833 54.9607 18.3833ZM59.3024 31.7847C59.3024 35.4729 57.4571 37.2101 54.4177 37.2101H49.0462V25.7621H54.4177C57.4571 25.7621 59.3024 27.497 59.3024 31.1876V31.7847Z" fill="#FCF8F2"/>
</svg>
