<svg width="118" height="106" viewBox="0 0 118 106" fill="none" xmlns="http://www.w3.org/2000/svg">
<circle cx="64.4388" cy="53" r="53" fill="#6DC6E2"/>
<circle cx="64.4388" cy="53" r="53" fill="url(#paint0_linear)"/>
<path d="M30.4552 22.8777C32.5577 22.8777 34.2621 24.5821 34.2621 26.6846V30.4915C34.2621 32.594 32.5577 34.2984 30.4552 34.2984C28.3527 34.2984 26.6483 32.594 26.6483 30.4915V26.6846C26.6483 24.5821 28.3527 22.8777 30.4552 22.8777Z" fill="#FFE600"/>
<path d="M45.6828 53.3329C45.6828 61.7428 38.8652 68.5605 30.4552 68.5605C22.0452 68.5605 15.2276 61.7428 15.2276 53.3329C15.2276 44.9229 22.0452 38.1053 30.4552 38.1053C38.8652 38.1053 45.6828 44.9229 45.6828 53.3329Z" fill="#FFE600"/>
<path d="M43.9148 72.1759L46.6067 74.8678C48.0934 76.3545 50.5038 76.3545 51.9905 74.8678C53.4771 73.3811 53.4771 70.9707 51.9905 69.484L49.2986 66.7921C47.8119 65.3054 45.4015 65.3054 43.9148 66.7921C42.4281 68.2788 42.4281 70.6892 43.9148 72.1759Z" fill="#FFE600"/>
<path d="M51.9901 31.7976C53.4768 33.2843 53.4768 35.6947 51.9901 37.1814L49.2982 39.8733C47.8115 41.3599 45.4011 41.3599 43.9144 39.8733C42.4278 38.3866 42.4278 35.9762 43.9144 34.4895L46.6063 31.7976C48.093 30.3109 50.5034 30.3109 51.9901 31.7976Z" fill="#FFE600"/>
<path d="M57.1035 57.1398C59.206 57.1398 60.9104 55.4354 60.9104 53.3329C60.9104 51.2304 59.206 49.526 57.1035 49.526H53.2966C51.1941 49.526 49.4897 51.2304 49.4897 53.3329C49.4897 55.4354 51.1941 57.1398 53.2966 57.1398H57.1035Z" fill="#FFE600"/>
<path d="M30.4552 72.3674C32.5577 72.3674 34.2621 74.0718 34.2621 76.1742V79.9811C34.2621 82.0836 32.5577 83.788 30.4552 83.788C28.3527 83.788 26.6483 82.0836 26.6483 79.9811V76.1742C26.6483 74.0718 28.3527 72.3674 30.4552 72.3674Z" fill="#FFE600"/>
<path d="M11.6122 39.8733C13.0989 41.36 15.5093 41.36 16.996 39.8733C18.4827 38.3866 18.4827 35.9762 16.996 34.4896L14.3041 31.7977C12.8174 30.311 10.407 30.311 8.92034 31.7977C7.43365 33.2844 7.43365 35.6947 8.92034 37.1814L11.6122 39.8733Z" fill="#FFE600"/>
<path d="M16.9956 72.1758L14.3038 74.8677C12.8171 76.3544 10.4067 76.3544 8.91998 74.8677C7.4333 73.381 7.4333 70.9706 8.91998 69.4839L11.6119 66.7921C13.0986 65.3054 15.5089 65.3054 16.9956 66.7921C18.4823 68.2787 18.4823 70.6891 16.9956 72.1758Z" fill="#FFE600"/>
<path d="M7.6138 57.1398C9.71629 57.1398 11.4207 55.4354 11.4207 53.3329C11.4207 51.2304 9.71629 49.526 7.6138 49.526H3.8069C1.70441 49.526 0 51.2304 0 53.3329C0 55.4354 1.70441 57.1398 3.8069 57.1398H7.6138Z" fill="#FFE600"/>
<path d="M26.5795 90.09C26.1541 88.4204 25.9281 86.6715 25.9281 84.8699C25.9281 73.9524 34.2296 64.9688 44.8803 63.8558C44.3628 61.8914 44.0872 59.8291 44.0872 57.7026C44.0872 44.3657 54.9274 33.554 68.2995 33.554C79.6722 33.554 89.2136 41.3744 91.8125 51.9175C93.0306 51.7513 94.2743 51.6655 95.5382 51.6655C104.093 51.6655 111.726 55.5986 116.72 61.7506C112.549 86.8578 90.7292 106 64.4389 106C49.6077 106 36.1993 99.9081 26.5795 90.09Z" fill="#F4F4F4"/>
<defs>
<linearGradient id="paint0_linear" x1="64.4388" y1="0" x2="64.4388" y2="106" gradientUnits="userSpaceOnUse">
<stop stop-color="#5ECDE6"/>
<stop offset="1" stop-color="white" stop-opacity="0"/>
</linearGradient>
</defs>
</svg>
